<mxfile host="app.diagrams.net" agent="Mozilla/5.0 (Windows NT 10.0; Win64; x64) AppleWebKit/537.36 (KHTML, like Gecko) Chrome/127.0.0.0 Safari/537.36" version="24.7.7">
  <diagram name="Page-1" id="YSzjfZ6DyUUy_DRy8nKj">
    <mxGraphModel dx="1434" dy="746" grid="1" gridSize="10" guides="1" tooltips="1" connect="1" arrows="1" fold="1" page="1" pageScale="1" pageWidth="827" pageHeight="1169" math="0" shadow="0">
      <root>
        <mxCell id="0" />
        <mxCell id="1" parent="0" />
        <mxCell id="FpIrspU67BElfcuX3JZL-1" value="&lt;b&gt;&lt;font style=&quot;font-size: 37px;&quot;&gt;Title&lt;/font&gt;&lt;/b&gt;" style="rounded=0;whiteSpace=wrap;html=1;" vertex="1" parent="1">
          <mxGeometry width="820" height="90" as="geometry" />
        </mxCell>
        <mxCell id="FpIrspU67BElfcuX3JZL-2" value="Information" style="rounded=0;whiteSpace=wrap;html=1;" vertex="1" parent="1">
          <mxGeometry x="20" y="130" width="390" height="300" as="geometry" />
        </mxCell>
        <mxCell id="FpIrspU67BElfcuX3JZL-4" value="Image" style="rounded=0;whiteSpace=wrap;html=1;" vertex="1" parent="1">
          <mxGeometry x="440" y="140" width="370" height="270" as="geometry" />
        </mxCell>
        <mxCell id="FpIrspU67BElfcuX3JZL-5" value="Book Now" style="rounded=0;whiteSpace=wrap;html=1;" vertex="1" parent="1">
          <mxGeometry x="330" y="460" width="200" height="60" as="geometry" />
        </mxCell>
      </root>
    </mxGraphModel>
  </diagram>
</mxfile>
